<?xml version="1.0" encoding="UTF-8"?> <svg xmlns="http://www.w3.org/2000/svg" width="793" height="793" viewBox="0 0 793 793" fill="none"><rect width="793" height="793" rx="396.5" fill="#FBF8F9"></rect><path d="M360.555 566.872C346.118 562.059 327.086 549.153 327.086 549.153C327.086 549.153 316.586 560.965 304.117 567.528C291.648 574.091 273.272 578.028 273.272 578.028C273.272 578.028 256.868 578.698 252.274 570.166C247.68 561.635 248.334 547.84 248.334 547.84C248.334 547.84 248.334 541.947 245.711 529.478C243.089 517.009 239.807 509.147 236.524 497.321C233.24 485.495 226.68 468.446 224.711 458.602C222.742 448.758 218.805 433.021 217.493 411.351C216.18 389.681 217.49 376.556 221.428 356.225C225.365 335.894 237.178 305.023 257.522 281.411C277.866 257.799 310.679 234.809 332.992 226.941C355.305 219.073 392.712 211.84 419.619 216.434C446.526 221.028 469.495 224.959 493.777 242.022C518.058 259.085 530.527 272.21 542.996 289.273C555.465 306.336 564.653 324.711 570.559 347.024C576.466 369.337 578.684 392.306 574.497 424.463C570.309 456.62 560.059 474.339 546.278 493.37C532.496 512.402 516.09 533.402 481.964 551.122C447.838 568.841 421.588 571.466 405.181 571.466C388.775 571.466 374.993 571.684 360.555 566.872Z" fill="#ffffff" stroke="black"></path><path d="M351.363 471.082C351.363 471.082 334.956 487.489 328.394 487.489C321.831 487.489 321.175 482.063 317.894 475.02C314.612 467.977 311.338 455.322 311.338 455.322C311.338 455.322 307.4 436.3 306.743 415.946C306.087 395.592 308.05 371.32 317.894 352.945C327.737 334.57 345.457 310.945 373.02 306.351C400.583 301.757 432.098 303.561 453.091 322.756C474.084 341.951 487.866 364.768 488.522 383.143C489.178 401.518 488.522 419.894 476.053 439.582C463.584 459.269 449.802 469.77 432.74 476.332C415.677 482.895 392.051 485.52 375.645 480.926C359.238 476.332 351.363 471.082 351.363 471.082Z" fill="#fbf8f900" stroke="black"></path></svg> 