<?xml version="1.0" encoding="UTF-8"?>
<!DOCTYPE svg PUBLIC "-//W3C//DTD SVG 1.1//EN" "http://www.w3.org/Graphics/SVG/1.1/DTD/svg11.dtd">
<!-- Creator: CorelDRAW 2026 -->
<svg xmlns="http://www.w3.org/2000/svg" xml:space="preserve" width="74.0998mm" height="20.9652mm" version="1.1" style="shape-rendering:geometricPrecision; text-rendering:geometricPrecision; image-rendering:optimizeQuality; fill-rule:evenodd; clip-rule:evenodd"
viewBox="0 0 1071.3 303.11"
 xmlns:xlink="http://www.w3.org/1999/xlink"
 xmlns:xodm="http://www.corel.com/coreldraw/odm/2003">
 <defs>
  <style type="text/css">
   <![CDATA[
    .fil0 {fill:white}
    .fil4 {fill:#E4262D}
    .fil5 {fill:#5FAF34}
    .fil2 {fill:#50B51A}
    .fil3 {fill:#77C73E}
    .fil7 {fill:#E4262D;fill-rule:nonzero}
    .fil6 {fill:#5FAF34;fill-rule:nonzero}
    .fil1 {fill:#77C73E;fill-rule:nonzero}
   ]]>
  </style>
 </defs>
 <g id="Слой_x0020_1">
  <metadata id="CorelCorpID_0Corel-Layer"/>
  <g id="_52047068576">
   <path class="fil0" d="M151.55 299.46c81.69,0 147.9,-66.22 147.9,-147.9 0,-81.68 -66.22,-147.9 -147.9,-147.9 -81.68,0 -147.9,66.22 -147.9,147.9 0,81.69 66.22,147.9 147.9,147.9z"/>
   <path class="fil1" d="M151.55 0c41.85,0 79.74,16.96 107.16,44.39 27.43,27.43 44.39,65.31 44.39,107.16 0,41.85 -16.96,79.74 -44.39,107.16 -27.43,27.43 -65.31,44.39 -107.16,44.39 -41.85,0 -79.74,-16.96 -107.16,-44.39 -27.43,-27.43 -44.39,-65.31 -44.39,-107.16 0,-41.85 16.96,-79.74 44.39,-107.16 27.43,-27.43 65.31,-44.39 107.16,-44.39zm-139.47 190.5l278.94 0c0.23,-0.84 0.46,-1.68 0.68,-2.52l-280.3 0c0.22,0.84 0.45,1.68 0.68,2.52zm277.32 5.42l-275.69 0c7.12,22.13 19.42,41.94 35.48,58 26.2,26.2 62.39,42.4 102.37,42.4 39.98,0 76.17,-16.2 102.37,-42.4 16.06,-16.06 28.36,-35.86 35.47,-58zm-35.47 -146.74c-26.2,-26.2 -62.39,-42.4 -102.37,-42.4 -39.98,0 -76.17,16.2 -102.37,42.4 -20.09,20.08 -34.3,46.04 -39.83,75.08l284.41 0c-5.54,-29.04 -19.75,-55 -39.83,-75.08zm-245.51 80.5c-0.13,0.84 -0.25,1.68 -0.36,2.52l286.98 0c-0.11,-0.84 -0.23,-1.68 -0.36,-2.52l-286.27 0zm-0.98 7.94c-0.44,4.58 -0.66,9.23 -0.66,13.93 0,10.64 1.15,21.02 3.33,31.01l282.89 0c2.18,-9.99 3.33,-20.37 3.33,-31.01 0,-4.7 -0.23,-9.34 -0.66,-13.93l-288.22 0z"/>
   <path class="fil2" d="M125.02 109.37c9.1,27.09 20.71,51.66 32.76,80.24 14.6,-35.14 24.92,-61.41 30.96,-78.81 1.5,-4 0.6,-6.48 -2.71,-7.45 -3.24,-0.72 -7.01,-1.2 -11.33,-1.43 -0.02,-2.56 -0.04,-4.55 -0.06,-5.96 14.19,1.05 27.75,1.04 40.68,-0.05 -0.03,2.04 -0.05,4.09 -0.08,6.13 -9.17,0.67 -11.13,2.6 -13.51,7.99l-46.68 111.27 -11.09 -0.05c-15.05,-37.24 -30.4,-74.4 -46.63,-111.35 -1.36,-3.88 -3.76,-6.12 -7.2,-6.7l-7.66 -1.12c-0.01,-1.98 -0.02,-3.96 -0.02,-5.94 18.55,0.82 37.32,0.79 56.3,-0.1 0.07,1.93 0.04,3.91 -0.09,5.94 -3.32,0.5 -6.84,1.03 -10.55,1.59 -2.77,0.47 -3.81,2.33 -3.07,5.81z"/>
   <polygon class="fil3" points="41.68,148.94 41.79,176.19 46.07,176.18 46.06,142.77 39.53,142.77 32.41,162.68 25.23,142.77 18.76,142.76 18.76,176.18 22.4,176.18 22.57,149.06 29.95,168.98 34.41,168.95 36.7,162.61 "/>
   <path class="fil3" d="M55.25 142.74l0 33.49 23.76 -0.03c0.22,-1.49 0.21,-2.72 0.01,-4.16l-18.51 -0.03 0.04 -11.45c4.93,0.19 9.52,0.33 14.59,0.02l0.07 -4.02 -14.71 0 0.05 -9.82 17.27 -0.04 -0 -3.95 -22.57 -0.01z"/>
   <path class="fil3" d="M93.44 154.42c-0.42,5.6 -1.33,10.99 -4.16,15.83 -0.8,1.36 -1.71,2.15 -3.51,1.74l-0.05 4.24 29.84 0 0.02 -4.22 -3.67 -0.05c-0,-9.71 0.16,-19.53 -0.02,-29.23l-18.23 0.06 -0.23 11.63zm0.74 17.58c4.11,-7.48 4.92,-16.76 4.69,-25.24l7.78 0 0.02 25.2 -12.49 0.04z"/>
   <path class="fil3" d="M122.64 142.8l-0.01 26.72 -0 6.65 2.62 -0.04 1.96 -0.03c2.27,-3.63 14.49,-23.44 15.3,-24.63 0.14,1.7 -0.02,21.63 -0.02,24.65l4.49 0c-0.04,-11.12 0.02,-22.16 0.03,-33.35 0,-0 0,-0 0,-0l-4.65 0.01c-5.25,7.7 -10.11,15.97 -15.11,23.86l-0.14 -23.84 -4.47 0.01z"/>
   <path class="fil4" d="M166.14 151.57l0.02 15.41c-2.02,-0.13 -4.41,-0.37 -5.82,-2.08 -2.4,-2.89 -2.49,-7.78 -0.29,-10.83 1.4,-1.95 3.89,-2.39 6.09,-2.51zm-10.01 -0.12c-4.2,4.45 -4.02,11.79 0.29,16.07 2.22,2.2 5.12,3.19 8.02,3.38l1.74 0.12 0.14 5.08c1.66,0.22 3.3,0.21 5.01,0l0.13 -5.01 4.12 -0.57c3.25,-0.45 6.05,-2.59 7.55,-5.57 1.74,-3.48 1.72,-7.63 0.02,-11.18 -0.84,-1.75 -2.66,-3.22 -4.3,-4.28 -1.47,-0.95 -3.12,-1.19 -4.71,-1.7l-2.68 -0.19 -0.04 -4.85 -5.19 0.01 -0.07 4.87c-3.73,0.16 -7.4,1.05 -10.03,3.83zm15.31 15.59l-0.04 -12.9c0,-0 0,-0 0,-0l0.02 -2.48c0.51,-0.17 0.99,-0.02 1.35,-0 4.03,0.16 6.3,3.28 6.24,7.2 -0.04,2.57 -0.33,5.36 -2.62,6.93 -1.38,0.95 -3.24,1.25 -4.95,1.26z"/>
   <path class="fil4" d="M200.18 142.86l-13.06 33.32 4.61 0.01 3.29 -8.49 14.97 0.08 3.21 8.42 5.59 -0.02 -13.26 -33.4 -5.36 0.07zm8.06 20.83l-11.66 0.07 5.81 -14.96 5.85 14.89z"/>
   <path class="fil4" d="M224.98 152.59c-3.78,10.27 1,21.82 12.21,23.98 4.83,0.93 9.67,0.31 14.2,-1.56l-0.07 -4.5c-3.19,1.44 -6.15,2.43 -9.74,2.23 -6.22,-0.35 -10.86,-4.56 -11.81,-10.49 -0.57,-3.58 -0.29,-7.2 1.4,-10.35 3.98,-7.4 12.29,-7.02 19.77,-3.75l-0.01 -4.75c-10.34,-3.41 -22.04,-1.42 -25.95,9.19z"/>
   <polygon class="fil4" points="268.82,146.71 268.8,176.2 274.02,176.15 274.05,146.71 286.87,146.7 286.85,142.74 255.75,142.74 255.74,146.7 "/>
   <polygon class="fil5" points="200.53,212.15 209.52,212.15 209.52,234.62 231.99,234.62 231.99,243.6 209.52,243.6 209.52,266.07 200.53,266.07 200.53,243.6 178.07,243.6 178.07,234.62 200.53,234.62 "/>
  </g>
  <g id="_52047060128">
   <path class="fil6" d="M351.75 94.63l0 120.37 26.95 0 0 -93.59 0.17 0 15.57 93.59 18.08 0 15.57 -93.59 0.34 0 0 93.59 26.79 0 0 -120.37 -43.7 0 -7.87 59.6 -0.34 0 -7.87 -59.6 -43.7 0zm116.52 0l0 120.37 62.95 0 0 -23.27 -35.32 0 0 -26.79 29.8 0 0 -23.1 -29.8 0 0 -23.94 33.99 0 0 -23.27 -61.61 0zm103.8 97.1c5.36,-15.9 6.53,-50.56 7.53,-76.68l13.39 0 0 76.68 -20.93 0zm-17.91 -97.1c-0.84,32.14 0.33,76.34 -9.04,97.1l-6.86 0 0 45.37 23.1 0 0 -22.1 43.86 0 0 22.1 23.27 0 0 -45.37 -7.7 0 0 -97.1 -66.63 0zm152.85 120.37l0 -120.37 -28.13 0 -16.07 63.11 -0.34 0 0 -63.11 -26.79 0 0 120.37 28.29 0 15.9 -63.11 0.33 0 0 63.11 26.79 0z"/>
   <path class="fil7" d="M762.09 135.99l0 37.67c0,3.18 0,11.05 -8.04,11.05 -8.04,0 -8.04,-7.87 -8.04,-11.05l0 -37.67c0,-4.19 0,-11.05 8.04,-11.05 8.04,0 8.04,6.86 8.04,11.05zm27.62 37.67l0 -37.67c0,-4.19 0,-11.05 8.04,-11.05 8.04,0 8.04,6.86 8.04,11.05l0 37.67c0,3.18 0,11.05 -8.04,11.05 -8.04,0 -8.04,-7.87 -8.04,-11.05zm11.05 -70.15c-3.18,0 -8.87,0.67 -11.05,2.85l0 -11.72 -27.62 0 0 11.72c-2.51,-2.34 -8.37,-2.85 -11.05,-2.85 -17.58,0 -32.65,11.38 -32.65,34.82l0 32.98c0,21.43 13.56,34.82 32.65,34.82 2.85,0 8.54,-1 11.05,-2.85l0 11.72 27.62 0 0 -11.72c2.51,1.84 7.37,2.85 11.05,2.85 18.92,0 32.65,-13.39 32.65,-34.82l0 -32.98c0,-23.44 -15.07,-34.82 -32.65,-34.82zm61.11 -8.87l-22.27 120.37 27.79 0 2.85 -21.43 19.42 0 2.51 21.43 29.13 0 -22.6 -120.37 -36.83 0zm11.22 77.51l7.03 -58.76 0.33 0 6.53 58.76 -13.9 0zm55.41 -44.7l0 54.75c0,21.43 13.73,34.82 35.66,34.82 22.1,0 35.66,-13.39 35.66,-34.82l0 -15.24 -27.62 0 0 17.58c0,3.18 0,11.05 -8.04,11.05 -8.04,0 -8.04,-7.87 -8.04,-11.05l0 -59.43c0,-4.19 0,-11.05 8.04,-11.05 8.04,0 8.04,6.86 8.04,11.05l0 13.56 27.62 0 0 -11.22c0,-23.44 -15.07,-34.82 -35.66,-34.82 -20.59,0 -35.66,11.39 -35.66,34.82zm79.19 -32.81l0 23.27 17.91 0 0 97.1 27.79 0 0 -97.1 17.91 0 0 -23.27 -63.62 0z"/>
  </g>
  <path class="fil6" d="M828.09 234.31l46.64 0 0 45.34 -18.14 0 0 -32.19 -10.36 0 0 32.19 -18.14 0 0 -45.34zm59.78 0l41.71 0 0 45.34 -18.14 0 0 -32.19 -7.25 0 0 16.97c0,1.17 -0.02,2.12 -0.06,2.85 -0.04,0.73 -0.18,1.72 -0.42,2.95 -0.24,1.23 -0.59,2.26 -1.07,3.08 -0.47,0.82 -1.17,1.72 -2.07,2.69 -0.91,0.97 -2,1.75 -3.27,2.33 -1.27,0.58 -2.91,1.07 -4.92,1.46 -2.01,0.39 -4.26,0.58 -6.77,0.58 -1.86,0 -4.12,-0.24 -6.8,-0.71l0 -12.7c1.12,0.3 2.07,0.45 2.85,0.45 1.17,0 2.16,-0.19 2.98,-0.58 0.82,-0.39 1.44,-0.84 1.85,-1.36 0.41,-0.52 0.72,-1.28 0.94,-2.3 0.22,-1.01 0.35,-1.89 0.39,-2.62 0.04,-0.73 0.07,-1.75 0.07,-3.04l0 -23.19zm68.01 16.26l4.28 0c0.99,-5.22 3.62,-9.47 7.87,-12.73 4.25,-3.26 9.88,-4.89 16.87,-4.89 7.69,0 13.98,2.17 18.88,6.51 4.9,4.34 7.35,10.18 7.35,17.52 0,7.38 -2.45,13.24 -7.35,17.55 -4.9,4.32 -11.22,6.48 -18.95,6.48 -6.78,0 -12.43,-1.65 -16.94,-4.96 -4.51,-3.3 -7.09,-7.72 -7.74,-13.25l-4.28 0 0 16.84 -18.14 0 0 -45.34 18.14 0 0 16.26zm29.21 15.93c2.46,0 4.53,-0.82 6.22,-2.46 1.68,-1.64 2.53,-3.99 2.53,-7.06 0,-3.07 -0.84,-5.42 -2.53,-7.06 -1.68,-1.64 -3.76,-2.46 -6.22,-2.46 -1.38,0 -2.72,0.26 -4.02,0.78 -1.3,0.52 -2.47,1.53 -3.53,3.04 -1.06,1.51 -1.59,3.41 -1.59,5.7 0,2.29 0.53,4.19 1.59,5.7 1.06,1.51 2.24,2.53 3.53,3.04 1.3,0.52 2.63,0.78 4.02,0.78zm67.62 -4.14l0 15.87c-3.54,1.86 -7.6,2.79 -12.18,2.79 -7.43,0 -13.49,-2.2 -18.2,-6.61 -4.71,-4.4 -7.06,-10.21 -7.06,-17.42 0,-3.93 0.75,-7.48 2.27,-10.66 1.51,-3.17 3.49,-5.7 5.93,-7.58 2.44,-1.88 5.11,-3.32 8,-4.31 2.89,-0.99 5.83,-1.49 8.81,-1.49 5.01,0 9.15,1.14 12.44,3.43l0 15.87c-1.3,-1.6 -2.86,-2.8 -4.7,-3.6 -1.83,-0.8 -3.62,-1.2 -5.34,-1.2 -3.63,0 -6.22,1.01 -7.77,3.04 -1.56,2.03 -2.33,4.34 -2.33,6.93 0,3.11 0.99,5.4 2.98,6.87 1.99,1.47 4.34,2.2 7.06,2.2 3.67,0 7.04,-1.38 10.1,-4.14z"/>
 </g>
</svg>
