<?xml version="1.0" encoding="UTF-8"?>
<!DOCTYPE svg PUBLIC "-//W3C//DTD SVG 1.1//EN" "http://www.w3.org/Graphics/SVG/1.1/DTD/svg11.dtd">
<!-- Creator: CorelDRAW 2026 -->
<svg xmlns="http://www.w3.org/2000/svg" xml:space="preserve" width="20.9652mm" height="20.9652mm" version="1.1" style="shape-rendering:geometricPrecision; text-rendering:geometricPrecision; image-rendering:optimizeQuality; fill-rule:evenodd; clip-rule:evenodd"
viewBox="0 0 85.76 85.76"
 xmlns:xlink="http://www.w3.org/1999/xlink"
 xmlns:xodm="http://www.corel.com/coreldraw/odm/2003">
 <defs>
  <style type="text/css">
   <![CDATA[
    .fil0 {fill:white}
    .fil3 {fill:#E4262D}
    .fil2 {fill:#50B51A}
    .fil1 {fill:#77C73E;fill-rule:nonzero}
   ]]>
  </style>
 </defs>
 <g id="Слой_x0020_1">
  <metadata id="CorelCorpID_0Corel-Layer"/>
  <path class="fil0" d="M42.88 84.73c23.11,0 41.85,-18.74 41.85,-41.85 0,-23.11 -18.74,-41.85 -41.85,-41.85 -23.11,0 -41.85,18.74 -41.85,41.85 0,23.11 18.74,41.85 41.85,41.85z"/>
  <path class="fil1" d="M42.88 0c11.84,0 22.56,4.8 30.32,12.56 7.76,7.76 12.56,18.48 12.56,30.32 0,11.84 -4.8,22.56 -12.56,30.32 -7.76,7.76 -18.48,12.56 -30.32,12.56 -11.84,0 -22.56,-4.8 -30.32,-12.56 -7.76,-7.76 -12.56,-18.48 -12.56,-30.32 0,-11.84 4.8,-22.56 12.56,-30.32 7.76,-7.76 18.48,-12.56 30.32,-12.56zm-39.46 53.9l78.92 0c0.07,-0.24 0.13,-0.47 0.19,-0.71l-79.31 0c0.06,0.24 0.13,0.48 0.19,0.71zm78.46 1.53l-78 0c2.01,6.26 5.49,11.87 10.04,16.41 7.41,7.41 17.65,12 28.96,12 11.31,0 21.55,-4.58 28.96,-12 4.54,-4.54 8.02,-10.15 10.04,-16.41zm-10.04 -41.52c-7.41,-7.41 -17.65,-12 -28.96,-12 -11.31,0 -21.55,4.58 -28.96,12 -5.68,5.68 -9.7,13.03 -11.27,21.24l80.47 0c-1.57,-8.22 -5.59,-15.56 -11.27,-21.24zm-69.46 22.78c-0.04,0.24 -0.07,0.47 -0.1,0.71l81.2 0c-0.03,-0.24 -0.07,-0.48 -0.1,-0.71l-80.99 0zm-0.28 2.25c-0.12,1.3 -0.19,2.61 -0.19,3.94 0,3.01 0.32,5.95 0.94,8.77l80.04 0c0.62,-2.83 0.94,-5.76 0.94,-8.77 0,-1.33 -0.06,-2.64 -0.19,-3.94l-81.55 0z"/>
  <path class="fil2" d="M31.22 29.06c4.16,12.38 9.46,23.6 14.97,36.66 6.67,-16.05 11.39,-28.06 14.14,-36.01 0.69,-1.83 0.27,-2.96 -1.24,-3.4 -1.48,-0.33 -3.2,-0.55 -5.18,-0.65 -0.01,-1.17 -0.02,-2.08 -0.03,-2.72 6.48,0.48 12.68,0.47 18.59,-0.02 -0.01,0.93 -0.02,1.87 -0.04,2.8 -4.19,0.31 -5.09,1.19 -6.17,3.65l-21.33 50.84 -5.07 -0.02c-6.88,-17.01 -13.89,-33.99 -21.31,-50.88 -0.62,-1.77 -1.72,-2.79 -3.29,-3.06l-3.5 -0.51c-0,-0.91 -0.01,-1.81 -0.01,-2.72 8.48,0.37 17.05,0.36 25.72,-0.04 0.03,0.88 0.02,1.78 -0.04,2.71 -1.52,0.23 -3.13,0.47 -4.82,0.73 -1.27,0.21 -1.74,1.06 -1.4,2.65z"/>
  <polygon class="fil3" points="41.97,6.03 45.43,6.03 45.43,14.67 54.07,14.67 54.07,18.13 45.43,18.13 45.43,26.77 41.97,26.77 41.97,18.13 33.33,18.13 33.33,14.67 41.97,14.67 "/>
 </g>
</svg>
