<?xml version="1.0" encoding="UTF-8"?>
<!DOCTYPE svg PUBLIC "-//W3C//DTD SVG 1.1//EN" "http://www.w3.org/Graphics/SVG/1.1/DTD/svg11.dtd">
<!-- Creator: CorelDRAW 2026 -->
<svg xmlns="http://www.w3.org/2000/svg" xml:space="preserve" width="20.9652mm" height="20.9652mm" version="1.1" style="shape-rendering:geometricPrecision; text-rendering:geometricPrecision; image-rendering:optimizeQuality; fill-rule:evenodd; clip-rule:evenodd"
viewBox="0 0 85.76 85.76"
 xmlns:xlink="http://www.w3.org/1999/xlink"
 xmlns:xodm="http://www.corel.com/coreldraw/odm/2003">
 <defs>
  <style type="text/css">
   <![CDATA[
    .fil0 {fill:white}
    .fil4 {fill:#E4262D}
    .fil5 {fill:#5FAF34}
    .fil2 {fill:#50B51A}
    .fil3 {fill:#77C73E}
    .fil1 {fill:#77C73E;fill-rule:nonzero}
   ]]>
  </style>
 </defs>
 <g id="Слой_x0020_1">
  <metadata id="CorelCorpID_0Corel-Layer"/>
  <g id="_51579737312">
   <path class="fil0" d="M42.88 84.73c23.11,0 41.85,-18.74 41.85,-41.85 0,-23.11 -18.74,-41.85 -41.85,-41.85 -23.11,0 -41.85,18.74 -41.85,41.85 0,23.11 18.74,41.85 41.85,41.85z"/>
   <path class="fil1" d="M42.88 0c11.84,0 22.56,4.8 30.32,12.56 7.76,7.76 12.56,18.48 12.56,30.32 0,11.84 -4.8,22.56 -12.56,30.32 -7.76,7.76 -18.48,12.56 -30.32,12.56 -11.84,0 -22.56,-4.8 -30.32,-12.56 -7.76,-7.76 -12.56,-18.48 -12.56,-30.32 0,-11.84 4.8,-22.56 12.56,-30.32 7.76,-7.76 18.48,-12.56 30.32,-12.56zm-39.46 53.9l78.92 0c0.07,-0.24 0.13,-0.47 0.19,-0.71l-79.31 0c0.06,0.24 0.13,0.48 0.19,0.71zm78.46 1.53l-78 0c2.01,6.26 5.49,11.87 10.04,16.41 7.41,7.41 17.65,12 28.96,12 11.31,0 21.55,-4.58 28.96,-12 4.54,-4.54 8.02,-10.15 10.04,-16.41zm-10.04 -41.52c-7.41,-7.41 -17.65,-12 -28.96,-12 -11.31,0 -21.55,4.58 -28.96,12 -5.68,5.68 -9.7,13.03 -11.27,21.24l80.47 0c-1.57,-8.22 -5.59,-15.56 -11.27,-21.24zm-69.46 22.78c-0.04,0.24 -0.07,0.47 -0.1,0.71l81.2 0c-0.03,-0.24 -0.07,-0.48 -0.1,-0.71l-80.99 0zm-0.28 2.25c-0.12,1.3 -0.19,2.61 -0.19,3.94 0,3.01 0.32,5.95 0.94,8.77l80.04 0c0.62,-2.83 0.94,-5.76 0.94,-8.77 0,-1.33 -0.06,-2.64 -0.19,-3.94l-81.55 0z"/>
   <path class="fil2" d="M35.37 30.95c2.57,7.66 5.86,14.62 9.27,22.7 4.13,-9.94 7.05,-17.37 8.76,-22.3 0.43,-1.13 0.17,-1.83 -0.77,-2.11 -0.92,-0.2 -1.98,-0.34 -3.2,-0.41 -0.01,-0.72 -0.01,-1.29 -0.02,-1.69 4.02,0.3 7.85,0.29 11.51,-0.02 -0.01,0.58 -0.01,1.16 -0.02,1.73 -2.6,0.19 -3.15,0.74 -3.82,2.26l-13.21 31.48 -3.14 -0.01c-4.26,-10.54 -8.6,-21.05 -13.19,-31.51 -0.39,-1.1 -1.06,-1.73 -2.04,-1.9l-2.17 -0.32c-0,-0.56 -0,-1.12 -0.01,-1.68 5.25,0.23 10.56,0.22 15.93,-0.03 0.02,0.55 0.01,1.11 -0.03,1.68 -0.94,0.14 -1.94,0.29 -2.99,0.45 -0.78,0.13 -1.08,0.66 -0.87,1.64z"/>
   <polygon class="fil3" points="11.79,42.14 11.82,49.85 13.03,49.85 13.03,40.39 11.18,40.39 9.17,46.03 7.14,40.39 5.31,40.39 5.31,49.85 6.34,49.85 6.39,42.17 8.47,47.81 9.74,47.8 10.38,46.01 "/>
   <path class="fil3" d="M15.63 40.39l0 9.48 6.72 -0.01c0.06,-0.42 0.06,-0.77 0,-1.18l-5.24 -0.01 0.01 -3.24c1.4,0.05 2.69,0.09 4.13,0.01l0.02 -1.14 -4.16 0 0.02 -2.78 4.89 -0.01 -0 -1.12 -6.39 -0z"/>
   <path class="fil3" d="M26.44 43.69c-0.12,1.58 -0.38,3.11 -1.18,4.48 -0.22,0.39 -0.48,0.61 -0.99,0.49l-0.01 1.2 8.44 0 0.01 -1.19 -1.04 -0.01c-0,-2.75 0.04,-5.53 -0.01,-8.27l-5.16 0.02 -0.06 3.29zm0.21 4.97c1.16,-2.12 1.39,-4.74 1.33,-7.14l2.2 0 0.01 7.13 -3.53 0.01z"/>
   <path class="fil3" d="M34.7 40.4l-0 7.56 -0 1.88 0.74 -0.01 0.56 -0.01c0.64,-1.03 4.1,-6.63 4.33,-6.97 0.04,0.48 -0.01,6.12 -0.01,6.97l1.27 0c-0.01,-3.15 0.01,-6.27 0.01,-9.44 0,-0 0,-0 0,-0l-1.32 0c-1.48,2.18 -2.86,4.52 -4.27,6.75l-0.04 -6.74 -1.26 0z"/>
   <path class="fil4" d="M47.01 42.88l0.01 4.36c-0.57,-0.04 -1.25,-0.1 -1.65,-0.59 -0.68,-0.82 -0.7,-2.2 -0.08,-3.06 0.4,-0.55 1.1,-0.68 1.72,-0.71zm-2.83 -0.03c-1.19,1.26 -1.14,3.34 0.08,4.55 0.63,0.62 1.45,0.9 2.27,0.96l0.49 0.03 0.04 1.44c0.47,0.06 0.93,0.06 1.42,0l0.04 -1.42 1.16 -0.16c0.92,-0.13 1.71,-0.73 2.14,-1.58 0.49,-0.98 0.49,-2.16 0.01,-3.16 -0.24,-0.49 -0.75,-0.91 -1.22,-1.21 -0.42,-0.27 -0.88,-0.34 -1.33,-0.48l-0.76 -0.05 -0.01 -1.37 -1.47 0 -0.02 1.38c-1.05,0.05 -2.09,0.3 -2.84,1.08zm4.33 4.41l-0.01 -3.65c0,-0 0,-0 0,-0l0.01 -0.7c0.14,-0.05 0.28,-0 0.38,-0 1.14,0.05 1.78,0.93 1.77,2.04 -0.01,0.73 -0.09,1.52 -0.74,1.96 -0.39,0.27 -0.92,0.36 -1.4,0.36z"/>
   <path class="fil4" d="M56.64 40.42l-3.69 9.43 1.3 0 0.93 -2.4 4.24 0.02 0.91 2.38 1.58 -0 -3.75 -9.45 -1.52 0.02zm2.28 5.89l-3.3 0.02 1.64 -4.23 1.66 4.21z"/>
   <path class="fil4" d="M63.65 43.17c-1.07,2.9 0.28,6.17 3.45,6.78 1.37,0.26 2.74,0.09 4.02,-0.44l-0.02 -1.27c-0.9,0.41 -1.74,0.69 -2.75,0.63 -1.76,-0.1 -3.07,-1.29 -3.34,-2.97 -0.16,-1.01 -0.08,-2.04 0.4,-2.93 1.13,-2.09 3.48,-1.99 5.59,-1.06l-0 -1.34c-2.93,-0.97 -6.24,-0.4 -7.34,2.6z"/>
   <polygon class="fil4" points="76.06,41.51 76.05,49.85 77.53,49.84 77.54,41.51 81.16,41.51 81.16,40.39 72.36,40.39 72.36,41.51 "/>
   <polygon class="fil5" points="56.74,60.02 59.28,60.02 59.28,66.38 65.64,66.38 65.64,68.92 59.28,68.92 59.28,75.28 56.74,75.28 56.74,68.92 50.38,68.92 50.38,66.38 56.74,66.38 "/>
  </g>
 </g>
</svg>
